<?xml version="1.0" encoding="utf-8"?>
<!-- Generator: Adobe Illustrator 18.1.1, SVG Export Plug-In . SVG Version: 6.00 Build 0)  -->
<svg version="1.1" id="Layer_1" xmlns="http://www.w3.org/2000/svg" xmlns:xlink="http://www.w3.org/1999/xlink" x="0px" y="0px"
	 width="35.2px" height="23px" viewBox="-455.6 295.5 35.2 23" enable-background="new -455.6 295.5 35.2 23" xml:space="preserve">
<path fill="#FFFFFF" d="M-422.8,306.8h-6.3v-3.5h3.9L-422.8,306.8z M-426.1,302h-3.6c-0.3,0-0.6,0.3-0.6,0.6v4.8
	c0,0.3,0.3,0.6,0.6,0.6h7.9l0.2,0.3v5.5h-1.3c-0.2-2-1.9-3.5-3.9-3.5s-3.6,1.5-3.9,3.5h-1.3v-12.7h5.2L-426.1,302z M-433.2,296.8
	v1.7h-4.7c-0.3,0-0.6,0.3-0.6,0.6s0.3,0.6,0.6,0.6h4.7v14h-9.9c-0.2-2-1.9-3.4-3.9-3.4c-2,0-3.6,1.5-3.9,3.4h-3.4v-4.1h17.5
	c0.3,0,0.6-0.3,0.6-0.6s-0.3-0.6-0.6-0.6h-17.5v-11.6H-433.2L-433.2,296.8z M-447,317c-1.4,0-2.6-1.1-2.6-2.6s1.1-2.6,2.6-2.6
	s2.6,1.1,2.6,2.6S-445.6,317-447,317L-447,317z M-426.8,317c-1.4,0-2.6-1.1-2.6-2.6s1.1-2.6,2.6-2.6s2.6,1.1,2.6,2.6
	S-425.4,317-426.8,317L-426.8,317z M-420.6,314.8c0.1-0.1,0.2-0.3,0.2-0.5v-6.3c0-0.1-0.1-0.2-0.1-0.3l-0.5-0.7l-1.4-2l-3.5-5.1
	c-0.1-0.2-0.3-0.3-0.5-0.3h-5.5v-3.6c0-0.3-0.3-0.6-0.6-0.6H-455c-0.3,0-0.6,0.3-0.6,0.6v18.3c0,0.3,0.3,0.6,0.6,0.6h4.1
	c0.2,2,1.9,3.5,3.9,3.5s3.6-1.5,3.9-3.5h12.5c0.2,2,1.9,3.5,3.9,3.5s3.6-1.5,3.9-3.5h2C-420.9,315.1-420.7,315-420.6,314.8z"/>
</svg>
