<?xml version="1.0" encoding="utf-8"?>
<!-- Generator: Adobe Illustrator 18.1.1, SVG Export Plug-In . SVG Version: 6.00 Build 0)  -->
<svg version="1.1" id="Capa_1" xmlns="http://www.w3.org/2000/svg" xmlns:xlink="http://www.w3.org/1999/xlink" x="0px" y="0px"
	 width="652px" height="492px" viewBox="178 60 652 492" enable-background="new 178 60 652 492" xml:space="preserve">
<g>
	<g>
		<path fill="#FFFFFF" d="M738.3,81.3H269.7c-39.5,0-71.7,32.2-71.7,71.7v306c0,39.5,32.2,71.7,71.7,71.7h468.6
			c39.5,0,71.7-32.2,71.7-71.7V153C810,113.5,777.8,81.3,738.3,81.3z M762.2,459c0,13.2-10.7,23.9-23.9,23.9H269.7
			c-13.2,0-23.9-10.7-23.9-23.9V255.8h516.4V459z M762.2,184.1H245.8V153c0-13.2,10.7-23.9,23.9-23.9h468.6
			c13.2,0,23.9,10.7,23.9,23.9V184.1z"/>
	</g>
</g>
<g>
	<g>
		<rect x="279.3" y="291.7" fill="#FFFFFF" width="315.6" height="47.8"/>
	</g>
</g>
</svg>
