<?xml version="1.0" encoding="utf-8"?>
<!-- Generator: Adobe Illustrator 18.1.1, SVG Export Plug-In . SVG Version: 6.00 Build 0)  -->
<svg version="1.1" id="Layer_1" xmlns="http://www.w3.org/2000/svg" xmlns:xlink="http://www.w3.org/1999/xlink" x="0px" y="0px"
	 width="120px" height="45px" viewBox="-78 136.8 850.4 325" enable-background="new -78 136.8 850.4 325" xml:space="preserve">
<g>
	<path fill="#0361AA" d="M306.3,167.1c-48,0-81.5,35.3-81.5,85.9c0,25.5,7.8,51.1,26.4,68.5c18.5,17.3,41.7,23.9,63.7,23.9
		c26.5,0,49.3-8.8,58.4-15.4c4.7-3.4,13-11.7,11.1-22.5c-1.6-9.2-9.6-17.2-12.3-19.9l-2-2l-1.3,1.6c-4.2,5-17.1,20.3-42.9,20.3
		c-29.4,0-48.3-17-48.3-43.2c0-1.1,0.9-2.1,2-2.1h107.2c1.1,0,2.1-0.9,2.1-2.1c0.1-1.8,0.1-3.5,0.1-5.3c0-25.5-7.8-47.3-22.6-63
		C351.4,175.9,330.1,167.1,306.3,167.1 M338.7,231.7h-58c-0.6,0-1.2-0.3-1.6-0.8c-0.4-0.5-0.5-1.1-0.4-1.7
		c3.2-17.9,14.5-28.1,31-28.1c16.2,0,27.7,10.5,31,28.1c0.1,0.6,0,1.2-0.4,1.7C339.9,231.4,339.3,231.7,338.7,231.7"/>
	<path fill="#0361AA" d="M527.3,194.8c0,9-5.9,18.2-10.4,25.6c-9.8-7.8-22.3-13.2-34.6-16c-10.1-2.2-33.4-4.3-34.8,9.2
		c-0.6,5.6,3.3,10.2,11,13.3c12.1,4.9,26.7,10.5,38.9,15.2c11.3,4.4,21.3,11.8,27.3,22.5c6,10.6,6.3,24.6,3.5,36.2
		c-6,25.5-30.1,39.6-54.8,42.8c-18.3,2.4-38.9,0.9-56-6.3c-7.6-3.2-17-7.9-17.4-17.4c-0.4-8.9,4.9-20.4,8.9-27
		c9,6.8,24.7,11.7,36.6,13.9c12.1,2.2,29,2.9,34.9-5.7c4.9-7.1-0.1-13.8-9.4-18.2c-11.4-5.5-29.3-12.1-37.1-15.8
		c-11.1-5.3-19.3-8.7-26.4-19.1c-6.9-10.1-8.7-23.1-6.5-35c4.7-25.6,31.3-38.6,55-41.3c14.6-1.6,30-0.5,44.2,3.2
		C510.2,177.4,526.4,182.5,527.3,194.8C527.3,198.2,526.8,188.1,527.3,194.8"/>
	<path fill="#0361AA" d="M663.6,194.8c0,9-5.9,18.2-10.4,25.6c-9.8-7.8-22.3-13.2-34.6-16c-10.1-2.2-33.4-4.3-34.8,9.2
		c-0.6,5.6,3.3,10.2,11,13.3c12.1,4.9,26.7,10.5,38.9,15.2c11.3,4.4,21.3,11.8,27.3,22.5c6,10.6,6.3,24.6,3.5,36.2
		c-6,25.5-30.1,39.6-54.8,42.8c-18.3,2.4-38.8,0.9-56-6.3c-7.6-3.2-17-7.9-17.4-17.4c-0.4-8.9,4.9-20.4,8.9-27
		c9,6.8,24.7,11.7,36.7,13.9c12.1,2.2,29,2.9,34.9-5.7c4.9-7.1-0.1-13.8-9.4-18.2c-11.4-5.5-29.3-12.1-37.1-15.8
		c-11.1-5.3-19.3-8.7-26.4-19.1c-6.9-10.1-8.7-23.1-6.5-35c4.7-25.6,31.3-38.6,55-41.3c14.6-1.6,30-0.5,44.2,3.2
		C646.5,177.4,662.8,182.5,663.6,194.8C663.6,198.2,663.1,188.1,663.6,194.8"/>
	<path fill="#0361AA" d="M3.4,170.1v143.1c0,5.6,0.8,10.2,2.4,13.6c1.6,3.4,3.8,6.1,6.5,8.1c2.8,2,6.2,3.4,10.2,4.2
		c4.2,0.8,9.1,1.2,14.4,1.2c4.3,0,6.3-0.1,10.3-0.4c2.2-0.1,3.7-0.3,4.6-0.4V195c0-5.5-1-9.9-2.9-13.2c-2-3.3-4.5-5.8-7.6-7.6
		c-3.3-1.9-7-3.2-11.1-3.8c-8.6-1.4-15.4-1.2-23.4-0.5C5.3,169.9,4.2,170,3.4,170.1"/>
	<path fill="#0361AA" d="M223.9,204.7l-54.1,134h-47L56,169.7h23.8c7.4,0,13,1.3,16.6,2.7c4.4,1.6,8.7,4.2,12.5,7.8
		c7.2,6.8,9.7,16.4,11.7,21.9l25.4,74.1l36.9-106.4h19.6C229.8,169.7,228.1,192.7,223.9,204.7"/>
	<g>
		<g>
			<g>
				<g>
					<defs>
						<path id="SVGID_1_" d="M344.4,411.9c228.7-32.4,368.2-5.4,400.5,31.5c0,0-44.8-160.3-401.8-94.9
							C114.3,380.9-25.2,353.9-57.4,317C-57.4,317-12.6,477.3,344.4,411.9"/>
					</defs>
					<clipPath id="SVGID_2_">
						<use xlink:href="#SVGID_1_"  overflow="visible"/>
					</clipPath>
					
						<linearGradient id="SVGID_3_" gradientUnits="userSpaceOnUse" x1="256.2845" y1="429.3441" x2="257.4288" y2="429.3441" gradientTransform="matrix(701.1372 28.8875 0 701.1372 -179745.0938 -308068.7813)">
						<stop  offset="0" style="stop-color:#2BACE2"/>
						<stop  offset="0.1568" style="stop-color:#1DBFF0"/>
						<stop  offset="0.4946" style="stop-color:#A0DDF9"/>
						<stop  offset="1" style="stop-color:#2BACE2"/>
					</linearGradient>
					<polygon clip-path="url(#SVGID_2_)" fill="url(#SVGID_3_)" points="-57.4,250.1 744.8,283.1 744.8,510.3 -57.4,477.3 					"/>
				</g>
			</g>
		</g>
	</g>
	<path fill="#0361AA" d="M-14.7,308.9c0.8,0,1.4,0.1,1.9,0.4c0.5,0.3,0.9,0.6,1.2,1.1c0.3,0.5,0.5,1.1,0.6,1.7
		c0.1,0.7,0.2,1.4,0.2,2.3v3.6h-13.7c-0.1-0.6-0.1-1.1-0.1-1.6c0-0.5,0-1.1,0-1.7c0-1,0.1-1.7,0.2-2.4c0.2-0.7,0.4-1.2,0.7-1.6
		c0.3-0.4,0.6-0.7,1.1-0.9c0.4-0.2,0.9-0.3,1.5-0.3c0.5,0,0.9,0.1,1.3,0.2c0.4,0.1,0.7,0.3,0.9,0.5c0.3,0.2,0.5,0.4,0.6,0.6
		c0.2,0.2,0.3,0.4,0.4,0.6c0.1-0.2,0.1-0.5,0.3-0.8c0.1-0.3,0.3-0.6,0.6-0.9c0.2-0.3,0.6-0.5,1-0.7C-15.8,309-15.3,308.9-14.7,308.9
		 M-21.2,311.3c-0.4,0-0.8,0.1-1,0.3c-0.3,0.2-0.5,0.4-0.6,0.7c-0.1,0.3-0.2,0.7-0.3,1.1c-0.1,0.4-0.1,0.9-0.1,1.4
		c0,0.3,0,0.6,0,0.9c0,0.2,0,0.4,0.1,0.6h4.5v-2c0-0.8-0.2-1.6-0.7-2.1C-19.7,311.6-20.4,311.3-21.2,311.3 M-12.3,314.9
		c0-0.6,0-1.2-0.1-1.7c-0.1-0.5-0.2-0.9-0.3-1.3c-0.2-0.4-0.4-0.7-0.7-0.9c-0.3-0.2-0.8-0.3-1.3-0.3c-0.5,0-0.9,0.1-1.2,0.3
		c-0.3,0.2-0.5,0.4-0.7,0.8c-0.2,0.3-0.3,0.7-0.4,1.1c-0.1,0.4-0.1,0.9-0.1,1.3v2h4.9L-12.3,314.9L-12.3,314.9z"/>
	<path fill="#0361AA" d="M-10.8,295.8l-3.7,1.4v5.6l3.7,1.3v1.8l-13.6-5c0-0.1-0.1-0.2-0.1-0.4c0-0.2-0.1-0.4-0.1-0.6
		c0-0.3,0.1-0.5,0.2-0.7c0.1-0.2,0.3-0.4,0.7-0.5l13-4.8L-10.8,295.8L-10.8,295.8z M-22.5,300l6.6,2.3v-4.6L-22.5,300z"/>
	<path fill="#0361AA" d="M-12.2,288.4c0.3,0,0.6,0,0.9,0c0.3,0,0.6,0,0.9,0.1c0.4,0,0.8,0.1,1.2,0.3c0.4,0.1,0.7,0.3,1,0.6
		c0.3,0.3,0.6,0.6,0.8,1c0.2,0.4,0.3,0.9,0.3,1.4c0,0.4-0.1,0.7-0.3,0.9c-0.2,0.1-0.4,0.2-0.7,0.2h-0.3c-0.1,0-0.2,0-0.2,0
		c0-1-0.2-1.7-0.6-2.1c-0.4-0.4-1.1-0.6-2-0.6h-13.3c0-0.1,0-0.1-0.1-0.2c0-0.1,0-0.2,0-0.2c0-0.1,0-0.3,0-0.4
		c0-0.1,0.1-0.3,0.2-0.4c0.1-0.1,0.2-0.2,0.4-0.3c0.2-0.1,0.4-0.1,0.6-0.1L-12.2,288.4L-12.2,288.4z"/>
	<path fill="#0361AA" d="M-17.7,272.1c1,0,1.9,0.1,2.8,0.3c0.9,0.2,1.7,0.6,2.3,1.1c0.6,0.5,1.2,1.1,1.6,1.9
		c0.4,0.8,0.6,1.7,0.6,2.7c0,1.1-0.2,2-0.6,2.7c-0.4,0.8-0.9,1.4-1.6,1.8c-0.7,0.5-1.4,0.8-2.3,1c-0.9,0.2-1.8,0.3-2.8,0.3
		c-0.9,0-1.8-0.1-2.7-0.4c-0.9-0.2-1.6-0.6-2.3-1.1c-0.6-0.5-1.2-1.1-1.6-1.9c-0.4-0.8-0.6-1.7-0.6-2.7c0-1,0.2-1.9,0.6-2.6
		c0.4-0.7,0.9-1.3,1.5-1.8c0.6-0.5,1.4-0.8,2.3-1C-19.6,272.3-18.7,272.1-17.7,272.1 M-17.7,274c-0.7,0-1.4,0.1-2.1,0.2
		c-0.7,0.1-1.2,0.4-1.7,0.7c-0.5,0.3-0.9,0.7-1.2,1.2c-0.3,0.5-0.4,1.1-0.4,1.9c0,0.8,0.2,1.4,0.4,2c0.3,0.5,0.7,0.9,1.2,1.3
		c0.5,0.3,1.1,0.5,1.7,0.7c0.7,0.1,1.4,0.2,2.1,0.2c0.7,0,1.5-0.1,2.1-0.2c0.7-0.1,1.3-0.4,1.8-0.7c0.5-0.3,0.9-0.7,1.3-1.2
		c0.3-0.5,0.5-1.2,0.5-1.9c0-0.8-0.2-1.4-0.5-1.9c-0.3-0.5-0.7-0.9-1.3-1.3c-0.5-0.3-1.1-0.5-1.8-0.7C-16.3,274.1-17,274-17.7,274"
		/>
	<path fill="#0361AA" d="M-13.5,250.9h-11.1c0,0,0-0.1,0-0.1c0,0,0-0.1,0-0.2c0-0.1,0-0.1,0-0.2c0-0.1,0-0.3,0.1-0.4
		c0-0.1,0.1-0.3,0.2-0.4c0.1-0.1,0.2-0.2,0.4-0.3c0.2-0.1,0.4-0.1,0.7-0.1h12.5v1.7l-10.7,7h10.7v1.7h-13.7c0-0.1,0-0.2-0.1-0.4
		c0-0.2,0-0.3,0-0.5c0-0.3,0.1-0.5,0.2-0.7c0.1-0.2,0.3-0.3,0.5-0.5L-13.5,250.9z"/>
	<path fill="#0361AA" d="M-17.7,232.9c1,0,1.9,0.1,2.8,0.3c0.9,0.2,1.7,0.6,2.3,1.1c0.6,0.5,1.2,1.1,1.6,1.9
		c0.4,0.8,0.6,1.7,0.6,2.7c0,1.1-0.2,2-0.6,2.7c-0.4,0.7-0.9,1.4-1.6,1.8c-0.7,0.5-1.4,0.8-2.3,1c-0.9,0.2-1.8,0.3-2.8,0.3
		c-0.9,0-1.8-0.1-2.7-0.4c-0.9-0.2-1.6-0.6-2.3-1.1c-0.6-0.5-1.2-1.1-1.6-1.9c-0.4-0.8-0.6-1.7-0.6-2.7c0-1,0.2-1.9,0.6-2.6
		c0.4-0.7,0.9-1.3,1.5-1.8c0.6-0.5,1.4-0.8,2.3-1C-19.6,233-18.7,232.9-17.7,232.9 M-17.7,234.8c-0.7,0-1.4,0.1-2.1,0.2
		c-0.7,0.1-1.2,0.4-1.7,0.7c-0.5,0.3-0.9,0.7-1.2,1.2c-0.3,0.5-0.4,1.1-0.4,1.9c0,0.8,0.2,1.4,0.4,2c0.3,0.5,0.7,0.9,1.2,1.3
		c0.5,0.3,1.1,0.6,1.7,0.7c0.7,0.1,1.4,0.2,2.1,0.2c0.7,0,1.5-0.1,2.1-0.2c0.7-0.1,1.3-0.4,1.8-0.7c0.5-0.3,0.9-0.7,1.3-1.2
		c0.3-0.5,0.5-1.2,0.5-1.9c0-0.8-0.2-1.4-0.5-1.9c-0.3-0.5-0.7-0.9-1.3-1.3c-0.5-0.3-1.1-0.5-1.8-0.7
		C-16.3,234.9-17,234.8-17.7,234.8"/>
	<path fill="#0361AA" d="M-20.8,220c0.6,0,1.1,0.1,1.5,0.2c0.5,0.2,0.8,0.4,1.2,0.7c0.3,0.3,0.6,0.6,0.8,1c0.2,0.4,0.4,0.7,0.5,1.2
		l6-3.8c0.1,0.1,0.1,0.3,0.2,0.5c0,0.2,0,0.3,0,0.5c0,0.6-0.3,1.1-0.8,1.5l-5,3.2v1.8h5.6v1.8h-13.7c-0.1-0.5-0.1-1-0.2-1.6
		c0-0.6,0-1.1,0-1.6c0-1.9,0.3-3.2,1-4C-23.1,220.4-22.1,220-20.8,220 M-20.7,221.9c-0.5,0-0.9,0.1-1.3,0.2
		c-0.3,0.2-0.6,0.4-0.8,0.7c-0.2,0.3-0.3,0.6-0.4,1.1c-0.1,0.4-0.1,0.9-0.1,1.4c0,0.3,0,0.6,0,0.9c0,0.2,0,0.5,0.1,0.7v0h5.2v-1.5
		c0-0.5,0-1-0.1-1.4c-0.1-0.4-0.3-0.8-0.5-1.1c-0.2-0.3-0.5-0.5-0.8-0.7C-19.7,221.9-20.2,221.9-20.7,221.9"/>
	<path fill="#0361AA" d="M-24.6,213.9c0-0.3,0.1-0.5,0.2-0.7c0.1-0.2,0.3-0.3,0.5-0.4l8.3-3.8l-8.3-3.8c-0.3-0.1-0.6-0.3-0.7-0.6
		c-0.1-0.2-0.2-0.4-0.2-0.7c0-0.2,0-0.4,0-0.5c0-0.2,0.1-0.3,0.1-0.4l13.7-1v1.7l-10.8,0.7l7.7,3.7v1.7l-7.3,3.5l10.5,0.8v1.7
		l-13.7-1c0-0.1-0.1-0.2-0.1-0.4C-24.6,214.3-24.6,214.1-24.6,213.9"/>
	<path fill="#0361AA" d="M-10.8,188.7l-3.7,1.4v5.6l3.7,1.3v1.8l-13.6-5c0-0.1-0.1-0.2-0.1-0.4c0-0.2-0.1-0.4-0.1-0.6
		c0-0.3,0.1-0.5,0.2-0.7c0.1-0.2,0.3-0.4,0.7-0.5l13-4.8L-10.8,188.7L-10.8,188.7z M-22.5,192.8l6.6,2.3v-4.6L-22.5,192.8z"/>
	<path fill="#0361AA" d="M-13.4,183.7c0.4-0.4,0.7-1,0.9-1.6c0.3-0.6,0.4-1.3,0.4-2c0-0.5-0.1-1-0.2-1.3c-0.1-0.4-0.3-0.6-0.5-0.9
		c-0.2-0.2-0.5-0.4-0.8-0.5c-0.3-0.1-0.6-0.1-0.9-0.1c-0.4,0-0.7,0.1-1,0.2c-0.3,0.1-0.5,0.3-0.8,0.5c-0.2,0.2-0.4,0.5-0.5,0.9
		c-0.1,0.3-0.3,0.7-0.4,1.2c-0.2,0.5-0.3,1-0.5,1.5c-0.2,0.5-0.4,0.9-0.7,1.2c-0.3,0.4-0.6,0.7-1.1,0.9c-0.4,0.2-1,0.3-1.6,0.3
		c-0.6,0-1.2-0.1-1.6-0.3c-0.5-0.2-0.9-0.5-1.2-0.9c-0.3-0.4-0.6-0.8-0.7-1.4c-0.2-0.5-0.3-1.1-0.3-1.7c0-0.5,0.1-1.1,0.2-1.6
		c0.1-0.6,0.3-1.1,0.6-1.5c0.1-0.2,0.3-0.4,0.4-0.6c0.2-0.1,0.3-0.2,0.5-0.2c0.2,0,0.3,0.1,0.5,0.2c0.2,0.1,0.4,0.3,0.6,0.5
		c-0.1,0.1-0.2,0.3-0.4,0.5c-0.1,0.2-0.3,0.4-0.4,0.7c-0.1,0.3-0.2,0.6-0.3,0.9c-0.1,0.3-0.1,0.7-0.1,1.1c0,0.5,0.1,0.9,0.2,1.2
		c0.1,0.3,0.3,0.6,0.5,0.8c0.2,0.2,0.4,0.3,0.6,0.4c0.3,0.1,0.5,0.1,0.8,0.1c0.4,0,0.6-0.1,0.9-0.2c0.2-0.1,0.5-0.3,0.6-0.6
		c0.2-0.3,0.4-0.6,0.5-0.9c0.1-0.4,0.3-0.8,0.4-1.3c0.2-0.5,0.3-0.9,0.5-1.4c0.2-0.4,0.5-0.8,0.8-1.1c0.3-0.3,0.7-0.6,1.1-0.8
		c0.4-0.2,1-0.3,1.5-0.3c0.7,0,1.3,0.1,1.8,0.3c0.5,0.2,1,0.5,1.3,0.9c0.4,0.4,0.6,0.9,0.8,1.5c0.2,0.6,0.3,1.2,0.3,1.9
		c0,0.8-0.1,1.5-0.2,2.1c-0.2,0.6-0.4,1.2-0.7,1.5c-0.2,0.3-0.5,0.5-0.8,0.5c-0.2,0-0.4-0.1-0.6-0.2C-13,184-13.2,183.8-13.4,183.7"
		/>
	<g>
		<g>
			<g>
				<g>
					<defs>
						<path id="SVGID_4_" d="M344.4,411.9c228.7-32.4,368.2-5.4,400.5,31.5c0,0-44.8-160.3-401.8-94.9
							C114.3,380.9-25.2,353.9-57.4,317C-57.4,317-12.6,477.3,344.4,411.9"/>
					</defs>
					<clipPath id="SVGID_5_">
						<use xlink:href="#SVGID_4_"  overflow="visible"/>
					</clipPath>
					<path clip-path="url(#SVGID_5_)" fill="#FFFFFF" d="M343.2,390.1c-77.9,13.2-159.9,23.4-239.5,14.4
						c-66.8-7.5-150.4-31.3-188.3-95c23.2,31.5,58.8,50.1,95,61.6c42.6,13.5,87.3,18.4,131.3,19.4c47.3,1.2,94.5-2.2,141.1-8.2
						c46.9-6,93-15.4,140.2-20.1c65.2-6.5,132.5-7.4,197.9,5.4c55.7,10.9,120.4,33.3,151.7,85.8c-42.6-57.9-123.4-73.6-188.9-79
						C502.9,367.7,421.8,376.2,343.2,390.1C320.7,393.9,366.7,386,343.2,390.1"/>
				</g>
			</g>
		</g>
	</g>
</g>
</svg>
