<?xml version="1.0" encoding="utf-8"?>
<!-- Generator: Adobe Illustrator 18.1.1, SVG Export Plug-In . SVG Version: 6.00 Build 0)  -->
<svg version="1.1" id="Layer_1" xmlns="http://www.w3.org/2000/svg" xmlns:xlink="http://www.w3.org/1999/xlink" x="0px" y="0px"
	 width="35px" height="28px" viewBox="0 0 62 50" enable-background="new 0 0 62 50" xml:space="preserve">
<g>
	<circle fill="#FFFFFF" cx="28.3" cy="33.2" r="1"/>
	<path fill="#FFFFFF" d="M43.9,10.7c0,4.8-3.9,8.8-8.8,8.8c-4.8,0-8.8-3.9-8.8-8.8c0-4.8,3.9-8.8,8.8-8.8C39.9,2,43.9,5.9,43.9,10.7
		z M24.4,10.7c0,5.9,4.8,10.7,10.7,10.7c5.9,0,10.7-4.8,10.7-10.7S41,0,35.1,0C29.2,0,24.4,4.8,24.4,10.7z"/>
	<path fill="#FFFFFF" d="M12.3,34c0.3-0.3,0.8-0.4,1.2-0.1c0.2,0.1-0.3-0.3,8.5,8.4c0.4,0.4,0.4,1,0,1.4l-4,4L8.4,38L12.3,34z
		 M24.6,27.5c1.5,0,2.9,0.3,4.3,0.9c0.1,0.1,0.3,0.1,0.4,0.1h11.1c1.1,0,2,0.9,2,2c0,1.1-0.9,2-2,2h-8c-0.5,0-1,0.4-1,1
		c0,0.5,0.4,1,1,1h8c2.2,0,3.9-1.8,3.9-3.9c0-0.2,0-0.3,0-0.5c5.6-5.7,6.4-6.5,6.4-6.6c0.7-0.8,1.9-0.9,2.8-0.2
		c0.8,0.7,0.9,1.9,0.2,2.8l-8.8,10.5c-1.3,1.2-3,1.9-4.7,1.9h-13c-1.3,0-2.5,0.5-3.4,1.4l-0.8,0.8l-7.6-7.6
		C17,29.4,20.4,27.5,24.6,27.5z M17.3,49.7c0.4,0.4,1,0.4,1.4,0l4.7-4.7c0.8-0.8,1-2,0.7-3l1-1c0.5-0.5,1.3-0.8,2-0.8h13
		c2.3,0,4.5-0.9,6.1-2.5c0.1-0.1-0.5,0.6,8.9-10.6c1.4-1.6,1.2-4.1-0.5-5.5c-1.6-1.4-4.1-1.2-5.5,0.4L43.4,28
		c-0.7-0.9-1.8-1.5-3-1.5H29.4c-1.5-0.6-3.2-1-4.9-1c-4.7,0-8.8,2.2-11,6.2c-0.9-0.2-1.9,0.1-2.6,0.8l-4.6,4.7c-0.4,0.4-0.4,1,0,1.4
		L17.3,49.7z"/>
	<path fill="#FFFFFF" d="M33.9,4.9V6c-1.1,0.4-2,1.5-2,2.8c0,1.6,1.3,2.9,2.9,2.9c0.5,0,1,0.4,1,1c0,0.5-0.4,1-1,1
		c-0.4,0-0.9-0.3-1.3-0.7c-0.3-0.4-1-0.5-1.4-0.1c-0.4,0.3-0.5,1-0.1,1.4c0.5,0.6,1.1,1.1,1.8,1.3v1.1c0,0.5,0.4,1,1,1s1-0.4,1-1
		v-1.1c1.1-0.4,2-1.5,2-2.8c0-1.6-1.3-2.9-2.9-2.9c-0.5,0-1-0.4-1-1c0-0.5,0.4-1,1-1c0.3,0,0.7,0.2,1.1,0.5c0.4,0.4,1,0.4,1.4,0
		c0.4-0.4,0.4-1,0-1.4c-0.5-0.5-1-0.8-1.4-0.9V4.9c0-0.5-0.4-1-1-1S33.9,4.3,33.9,4.9z"/>
</g>
</svg>
