<?xml version="1.0" encoding="utf-8"?>
<!-- Generator: Adobe Illustrator 18.1.1, SVG Export Plug-In . SVG Version: 6.00 Build 0)  -->
<svg version="1.1" id="Layer_1" xmlns="http://www.w3.org/2000/svg" xmlns:xlink="http://www.w3.org/1999/xlink" x="0px" y="0px"
	 width="35px" height="28px" viewBox="0 0 62 51.1" enable-background="new 0 0 62 51.1" xml:space="preserve">
<g>
	<path fill="#FFFFFF" d="M45.1,14.7v1.6c0,0.7-0.6,1.3-1.3,1.3H18.2c-0.7,0-1.3-0.6-1.3-1.3v-1.6c0-0.7,0.6-1.3,1.3-1.3h25.6
		C44.5,13.4,45.1,14,45.1,14.7z M45.1,26.2v1.6c0,0.7-0.6,1.3-1.3,1.3H18.2c-0.7,0-1.3-0.6-1.3-1.3v-1.6c0-0.7,0.6-1.3,1.3-1.3h25.6
		C44.5,24.9,45.1,25.5,45.1,26.2z M39.1,34.7H22.9l-3-4.4h22.2L39.1,34.7z M45.1,49.2h-2.5v-9.8c0-0.4-0.3-0.7-0.7-0.7H20.1
		c-0.4,0-0.7,0.3-0.7,0.7v9.8h-2.5v-13h28.2V49.2z M36.8,42.2h-3.3V40h4.2v2.2H36.8z M35.1,43.5h1v1.9h-1V43.5z M27.6,42.2h-3.3V40
		h4.2v2.2H27.6z M25.9,43.5h1v1.9h-1V43.5z M20.8,49.2V40h2.1v2.9c0,0.4,0.3,0.7,0.7,0.7h0h0.9v2.6c0,0.4,0.3,0.7,0.7,0.7h2.4
		c0.4,0,0.7-0.3,0.7-0.7v-2.6h0.9c0.4,0,0.7-0.3,0.7-0.7v0V40h2.2v2.9c0,0.4,0.3,0.7,0.7,0.7h0h0.9v2.6c0,0.4,0.3,0.7,0.7,0.7h2.4
		c0.4,0,0.7-0.3,0.7-0.7v-2.6h0.9c0.4,0,0.7-0.3,0.7-0.7v0V40h2.1v9.1L20.8,49.2z M42.7,23.6H19.3v-4.7h23.4L42.7,23.6z M42.7,12
		H19.3V7.4h23.4L42.7,12z M16.9,4.7V3.2c0-0.7,0.6-1.3,1.3-1.3h25.6c0.7,0,1.3,0.6,1.3,1.3v1.6c0,0.7-0.6,1.3-1.3,1.3H18.2
		C17.5,6,16.9,5.4,16.9,4.7L16.9,4.7L16.9,4.7z M46.5,4.7V3.2c0-1.5-1.2-2.6-2.6-2.6H18.2c-1.5,0-2.6,1.2-2.6,2.6v1.6
		c0,1.4,1,2.5,2.4,2.6v4.7c-1.4,0.1-2.4,1.3-2.4,2.6v1.6c0,1.4,1,2.5,2.4,2.6v4.7c-1.4,0.1-2.4,1.3-2.4,2.6v1.6
		c0,1.5,1.2,2.6,2.6,2.6h0.1l3,4.4h-5c-0.4,0-0.7,0.3-0.7,0.7v14.4c0,0.4,0.3,0.7,0.7,0.7h29.6c0.4,0,0.7-0.3,0.7-0.7V35.4
		c0-0.4-0.3-0.7-0.7-0.7h-5l3-4.4h0.1c1.5,0,2.6-1.2,2.6-2.6v-1.6c0-1.4-1-2.5-2.4-2.6v-4.7c1.4-0.1,2.4-1.3,2.4-2.6v-1.6
		c0-1.4-1-2.5-2.4-2.6V7.3C45.4,7.2,46.5,6.1,46.5,4.7L46.5,4.7z"/>
	<path fill="none" stroke="#FFFFFF" stroke-width="1.0566" stroke-miterlimit="10" d="M45.1,14.7v1.6c0,0.7-0.6,1.3-1.3,1.3H18.2
		c-0.7,0-1.3-0.6-1.3-1.3v-1.6c0-0.7,0.6-1.3,1.3-1.3h25.6C44.5,13.4,45.1,14,45.1,14.7z M45.1,26.2v1.6c0,0.7-0.6,1.3-1.3,1.3H18.2
		c-0.7,0-1.3-0.6-1.3-1.3v-1.6c0-0.7,0.6-1.3,1.3-1.3h25.6C44.5,24.9,45.1,25.5,45.1,26.2z M39.1,34.7H22.9l-3-4.4h22.2L39.1,34.7z
		 M45.1,49.2h-2.5v-9.8c0-0.4-0.3-0.7-0.7-0.7H20.1c-0.4,0-0.7,0.3-0.7,0.7v9.8h-2.5v-13h28.2V49.2z M36.8,42.2h-3.3V40h4.2v2.2
		H36.8z M35.1,43.5h1v1.9h-1V43.5z M27.6,42.2h-3.3V40h4.2v2.2H27.6z M25.9,43.5h1v1.9h-1V43.5z M20.8,49.2V40h2.1v2.9
		c0,0.4,0.3,0.7,0.7,0.7h0h0.9v2.6c0,0.4,0.3,0.7,0.7,0.7h2.4c0.4,0,0.7-0.3,0.7-0.7v-2.6h0.9c0.4,0,0.7-0.3,0.7-0.7v0V40h2.2v2.9
		c0,0.4,0.3,0.7,0.7,0.7h0h0.9v2.6c0,0.4,0.3,0.7,0.7,0.7h2.4c0.4,0,0.7-0.3,0.7-0.7v-2.6h0.9c0.4,0,0.7-0.3,0.7-0.7v0V40h2.1v9.1
		L20.8,49.2z M42.7,23.6H19.3v-4.7h23.4L42.7,23.6z M42.7,12H19.3V7.4h23.4L42.7,12z M16.9,4.7V3.2c0-0.7,0.6-1.3,1.3-1.3h25.6
		c0.7,0,1.3,0.6,1.3,1.3v1.6c0,0.7-0.6,1.3-1.3,1.3H18.2C17.5,6,16.9,5.4,16.9,4.7L16.9,4.7L16.9,4.7z M46.5,4.7V3.2
		c0-1.5-1.2-2.6-2.6-2.6H18.2c-1.5,0-2.6,1.2-2.6,2.6v1.6c0,1.4,1,2.5,2.4,2.6v4.7c-1.4,0.1-2.4,1.3-2.4,2.6v1.6
		c0,1.4,1,2.5,2.4,2.6v4.7c-1.4,0.1-2.4,1.3-2.4,2.6v1.6c0,1.5,1.2,2.6,2.6,2.6h0.1l3,4.4h-5c-0.4,0-0.7,0.3-0.7,0.7v14.4
		c0,0.4,0.3,0.7,0.7,0.7h29.6c0.4,0,0.7-0.3,0.7-0.7V35.4c0-0.4-0.3-0.7-0.7-0.7h-5l3-4.4h0.1c1.5,0,2.6-1.2,2.6-2.6v-1.6
		c0-1.4-1-2.5-2.4-2.6v-4.7c1.4-0.1,2.4-1.3,2.4-2.6v-1.6c0-1.4-1-2.5-2.4-2.6V7.3C45.4,7.2,46.5,6.1,46.5,4.7L46.5,4.7z"/>
</g>
</svg>
