<?xml version="1.0" encoding="utf-8"?>
<!-- Generator: Adobe Illustrator 18.1.1, SVG Export Plug-In . SVG Version: 6.00 Build 0)  -->
<svg version="1.1" id="Layer_1" xmlns="http://www.w3.org/2000/svg" xmlns:xlink="http://www.w3.org/1999/xlink" x="0px" y="0px"
	 width="35px" height="28px" viewBox="0 0 62 50" enable-background="new 0 0 62 50" xml:space="preserve">
<path fill="#FFFFFF" d="M8.8,18.5h6.7v6.1h-11L8.8,18.5z M11.5,14.7h9v22.1h-2.2c-0.4-3.4-3.3-6-6.7-6s-6.3,2.6-6.7,6H2.6v-9.5
	l0.3-0.5h13.7c0.6,0,1.1-0.5,1.1-1.1v-8.3c0-0.6-0.5-1.1-1.1-1.1h-6.3L11.5,14.7z M59.4,7.2v20.1H28.9c-0.6,0-1.1,0.5-1.1,1.1
	c0,0.6,0.5,1.1,1.1,1.1h30.5v7.2h-6c-0.4-3.4-3.3-6-6.7-6c-3.4,0-6.3,2.6-6.7,6H22.7V12.4h8.1c0.6,0,1.1-0.5,1.1-1.1
	c0-0.6-0.5-1.1-1.1-1.1h-8.1V7.2H59.4z M46.7,42.4c-2.5,0-4.5-2-4.5-4.5c0-2.5,2-4.5,4.5-4.5c2.5,0,4.5,2,4.5,4.5
	C51.2,40.4,49.2,42.4,46.7,42.4L46.7,42.4z M11.5,42.4c-2.5,0-4.5-2-4.5-4.5c0-2.5,2-4.5,4.5-4.5c2.5,0,4.5,2,4.5,4.5
	C16,40.4,14,42.4,11.5,42.4L11.5,42.4z M1.5,39h3.4c0.4,3.4,3.3,6,6.7,6s6.3-2.6,6.7-6H40c0.4,3.4,3.3,6,6.7,6c3.4,0,6.3-2.6,6.7-6
	h7.1c0.6,0,1.1-0.5,1.1-1.1V6.1c0-0.6-0.5-1.1-1.1-1.1h-39c-0.6,0-1.1,0.5-1.1,1.1v6.3h-9.5c-0.4,0-0.7,0.2-0.9,0.5l-6.1,8.8
	l-2.4,3.4l-0.9,1.2c-0.1,0.2-0.2,0.4-0.2,0.6v10.9c0,0.3,0.1,0.6,0.3,0.8C0.9,38.9,1.2,39,1.5,39z"/>
</svg>
