<?xml version="1.0" encoding="utf-8"?>
<!-- Generator: Adobe Illustrator 18.1.1, SVG Export Plug-In . SVG Version: 6.00 Build 0)  -->
<svg version="1.1" id="Layer_1" xmlns="http://www.w3.org/2000/svg" xmlns:xlink="http://www.w3.org/1999/xlink" x="0px" y="0px"
	 width="65px" height="75px" viewBox="0 0 65 75" enable-background="new 0 0 65 75" xml:space="preserve">
<g>
	<path fill="#1E73BE" d="M54.7,3.7H22.8C15.9,3.7,14,5,13.7,11h2.4c0.2-4.4,1.2-4.8,6.7-4.8h31.9c6.2,0,6.7,0.5,6.7,6.7v39.9h2.4
		V12.8C63.8,5.3,62.2,3.7,54.7,3.7z"/>
	<path fill="none" stroke="#188ACD" d="M54.7,3.7H22.8C15.9,3.7,14,5,13.7,11h2.4c0.2-4.4,1.2-4.8,6.7-4.8h31.9
		c6.2,0,6.7,0.5,6.7,6.7v39.9h2.4V12.8C63.8,5.3,62.2,3.7,54.7,3.7z"/>
	<path fill="#1E73BE" d="M45,13.4H13.1c-7.5,0-9.1,1.6-9.1,9.1v41.1c0,7.5,1.6,9.1,9.1,9.1h30.8v-2.4H13.1c-6.2,0-6.7-0.5-6.7-6.7
		V22.5c0-6.2,0.5-6.7,6.7-6.7H45c6.2,0,6.7,0.5,6.7,6.7v39.9h2.4V22.5C54.1,15,52.5,13.4,45,13.4z"/>
	<path fill="none" stroke="#188ACD" d="M45,13.4H13.1c-7.5,0-9.1,1.6-9.1,9.1v41.1c0,7.5,1.6,9.1,9.1,9.1h30.8v-2.4H13.1
		c-6.2,0-6.7-0.5-6.7-6.7V22.5c0-6.2,0.5-6.7,6.7-6.7H45c6.2,0,6.7,0.5,6.7,6.7v39.9h2.4V22.5C54.1,15,52.5,13.4,45,13.4z"/>
	<path fill="#1E73BE" d="M21.5,54.9v-3c3.3-0.6,5.2-2.8,5.2-5.4c0-2.6-1.4-4.2-4.8-5.4c-2.5-0.9-3.5-1.5-3.5-2.5
		c0-0.8,0.6-1.6,2.5-1.6c2.1,0,3.4,0.7,4.2,1l0.8-3.3c-1-0.5-2.3-0.9-4.2-1v-2.6h-2.8v2.8c-3.1,0.6-4.9,2.6-4.9,5.2
		c0,2.8,2.1,4.3,5.2,5.3c2.1,0.7,3.1,1.4,3.1,2.5c0,1.2-1.1,1.8-2.8,1.8c-1.9,0-3.6-0.6-4.8-1.3l-0.9,3.4c1.1,0.6,3,1.2,4.9,1.2v2.8
		L21.5,54.9L21.5,54.9z"/>
	<path fill="none" stroke="#188ACD" d="M21.5,54.9v-3c3.3-0.6,5.2-2.8,5.2-5.4c0-2.6-1.4-4.2-4.8-5.4c-2.5-0.9-3.5-1.5-3.5-2.5
		c0-0.8,0.6-1.6,2.5-1.6c2.1,0,3.4,0.7,4.2,1l0.8-3.3c-1-0.5-2.3-0.9-4.2-1v-2.6h-2.8v2.8c-3.1,0.6-4.9,2.6-4.9,5.2
		c0,2.8,2.1,4.3,5.2,5.3c2.1,0.7,3.1,1.4,3.1,2.5c0,1.2-1.1,1.8-2.8,1.8c-1.9,0-3.6-0.6-4.8-1.3l-0.9,3.4c1.1,0.6,3,1.2,4.9,1.2v2.8
		L21.5,54.9L21.5,54.9z"/>
	<rect x="30.4" y="35.7" fill="#1E73BE" width="16.7" height="2.4"/>
	<rect x="30.4" y="35.7" fill="none" stroke="#188ACD" width="16.7" height="2.4"/>
	<rect x="30.4" y="41.8" fill="#1E73BE" width="16.7" height="2.4"/>
	<rect x="30.4" y="41.8" fill="none" stroke="#188ACD" width="16.7" height="2.4"/>
	<rect x="30.4" y="48" fill="#1E73BE" width="16.7" height="2.4"/>
	<rect x="30.4" y="48" fill="none" stroke="#188ACD" width="16.7" height="2.4"/>
</g>
</svg>
